<?xml version="1.0" encoding="UTF-8"?><svg id="a" xmlns="http://www.w3.org/2000/svg" viewBox="0 0 1000 250"><defs><style>.b,.c{stroke-width:0px;}.c{fill:#f7a600;}</style></defs><circle class="c" cx="125.17" cy="126.32" r="63.91"/><path class="b" d="m303.62,98.88h26.01l-34.8,91.57h-26.92l-34.8-91.57h26.01l22.16,64.1,22.34-64.1Z"/><path class="b" d="m338.05,76.73c0-7.69,6.59-14.28,14.47-14.28s14.65,6.59,14.65,14.28-6.59,14.1-14.65,14.1-14.47-6.41-14.47-14.1Zm2.75,113.73v-91.57h23.62v91.57h-23.62Z"/><path class="b" d="m396.84,154.37c3.11,11.54,11.72,17.21,25.82,17.21,8.97,0,15.93-3.11,20.51-9.16l19.05,10.99c-8.97,13-22.34,19.59-39.92,19.59-15.2,0-27.29-4.58-36.44-13.73-9.16-9.16-13.74-20.69-13.74-34.61s4.58-25.27,13.55-34.43c8.97-9.34,20.69-13.92,34.8-13.92,13.37,0,24.54,4.58,33.15,13.92,8.79,9.34,13.19,20.69,13.19,34.43,0,3.11-.37,6.23-.92,9.71h-69.04Zm46.33-18.31c-2.75-12.45-11.9-18.5-22.71-18.5-12.64,0-21.24,6.78-23.99,18.5h46.7Z"/><path class="b" d="m523.75,121.59h-20.69v38.09c0,9.89,7.14,10.07,20.69,9.34v21.43c-32.41,3.66-44.32-5.68-44.32-30.77v-38.09h-15.93v-22.71h15.93v-18.5l23.62-7.14v25.64h20.69v22.71Z"/><path class="c" d="m541.7,179.1c-9.16-9.34-13.73-20.69-13.73-34.43s4.58-25.09,13.73-34.43c9.34-9.34,20.88-13.92,34.61-13.92,17.76,0,33.51,9.16,41.02,23.62l-20.33,11.9c-3.66-7.51-11.54-12.27-20.88-12.27-14.1,0-24.54,10.44-24.54,25.09,0,7.14,2.38,13.19,6.96,17.95,4.58,4.58,10.44,6.96,17.58,6.96,9.52,0,17.4-4.58,21.06-12.09l20.51,11.72c-8.06,14.47-23.62,23.81-41.39,23.81-13.74,0-25.27-4.58-34.61-13.92Z"/><path class="c" d="m621.73,190.45V56.76h23.62v133.69h-23.62Z"/><path class="c" d="m655.06,76.73c0-7.69,6.59-14.28,14.47-14.28s14.65,6.59,14.65,14.28-6.59,14.1-14.65,14.1-14.47-6.41-14.47-14.1Zm2.75,113.73v-91.57h23.62v91.57h-23.62Z"/><path class="c" d="m829.77,134.05v56.41h-23.62v-54.76c0-10.99-5.68-17.4-15.38-17.4-10.8,0-17.03,7.33-17.03,20.69v51.46h-23.62v-54.76c0-10.99-5.68-17.4-15.38-17.4-10.44,0-17.21,7.33-17.21,20.69v51.46h-23.62v-91.57h23.62v9.71c5.49-8.24,13.92-12.27,25.46-12.27s19.6,4.4,24.91,13.19c6.04-8.79,15.2-13.19,27.29-13.19,21.06,0,34.61,14.83,34.61,37.73Z"/><path class="c" d="m925.55,110.42c8.79,9.34,13.19,20.69,13.19,34.25s-4.4,25.09-13.19,34.43c-8.61,9.34-19.23,13.92-31.5,13.92s-22.71-4.39-29.67-13.37v10.8h-23.62V62.26h23.62v47.43c6.96-8.97,16.85-13.37,29.67-13.37s22.89,4.76,31.5,14.1Zm-35.89,60.07c7.33,0,13.37-2.38,18.13-7.14s7.33-11.17,7.33-18.68-2.38-13.74-7.33-18.5c-4.76-4.95-10.81-7.33-18.13-7.33s-13.37,2.38-18.13,7.33c-4.76,4.76-7.14,10.99-7.14,18.5s2.38,13.74,7.14,18.68c4.76,4.76,10.8,7.14,18.13,7.14Z"/><polygon class="b" points="125.17 98.75 72.22 190.45 178.11 190.45 125.17 98.75"/></svg>